<?xml version="1.0" encoding="UTF-8" standalone="no"?>
<!-- Created with Inkscape (http://www.inkscape.org/) -->

<svg
   xmlns:dc="http://purl.org/dc/elements/1.1/"
   xmlns:cc="http://creativecommons.org/ns#"
   xmlns:rdf="http://www.w3.org/1999/02/22-rdf-syntax-ns#"
   xmlns:svg="http://www.w3.org/2000/svg"
   xmlns="http://www.w3.org/2000/svg"
   xmlns:sodipodi="http://sodipodi.sourceforge.net/DTD/sodipodi-0.dtd"
   xmlns:inkscape="http://www.inkscape.org/namespaces/inkscape"
   id="svg2"
   version="1.1"
   inkscape:version="0.48.4 r9939"
   width="428.275"
   height="120.4375"
   xml:space="preserve"
   sodipodi:docname="AAMGALogo_Color.eps"><metadata
     id="metadata8"><rdf:RDF><cc:Work
         rdf:about=""><dc:format>image/svg+xml</dc:format><dc:type
           rdf:resource="http://purl.org/dc/dcmitype/StillImage" /><dc:title></dc:title></cc:Work></rdf:RDF></metadata><defs
     id="defs6" /><sodipodi:namedview
     pagecolor="#ffffff"
     bordercolor="#666666"
     borderopacity="1"
     objecttolerance="10"
     gridtolerance="10"
     guidetolerance="10"
     inkscape:pageopacity="0"
     inkscape:pageshadow="2"
     inkscape:window-width="1323"
     inkscape:window-height="760"
     id="namedview4"
     showgrid="false"
     inkscape:zoom="0.89195028"
     inkscape:cx="214.1375"
     inkscape:cy="60.21875"
     inkscape:window-x="49"
     inkscape:window-y="24"
     inkscape:window-maximized="0"
     inkscape:current-layer="g12" /><g
     id="g10"
     inkscape:groupmode="layer"
     inkscape:label="ink_ext_XXXXXX"
     transform="matrix(1.25,0,0,-1.25,0,120.4375)"><g
       id="g12"
       transform="scale(0.1,0.1)"><path
         d="m 0,413.77 645.137,0 0,549.777 L 0,963.547 0,413.77 z"
         style="fill:#2151a8;fill-opacity:1;fill-rule:nonzero;stroke:none"
         id="path14" /><path
         d="m 0,222.871 645.137,0 0,97.2188 -645.137,0 0,-97.2188 z"
         style="fill:#ee293d;fill-opacity:1;fill-rule:nonzero;stroke:none"
         id="path16" /><path
         d="m 0,31.9805 645.137,0 0,97.2188 -645.137,0 0,-97.2188 z"
         style="fill:#ee293d;fill-opacity:1;fill-rule:nonzero;stroke:none"
         id="path18" /><path
         d="m 321.609,724.602 78.633,58.503 -98.133,0 -29.882,89.602 -28.157,-89.602 -97.871,0 79.446,-58.636 -29.239,-93 77.317,57.508 79.257,-58.497 -31.371,94.122"
         style="fill:#ffffff;fill-opacity:1;fill-rule:nonzero;stroke:none"
         id="path20" /><path
         d="m 141.23,594.07 49.395,36.758 -61.672,0 -18.777,56.301 -17.676,-56.301 -61.5039,0 49.9141,-36.836 -18.3711,-58.445 48.5819,36.133 49.809,-36.758 -19.7,59.148"
         style="fill:#ffffff;fill-opacity:1;fill-rule:nonzero;stroke:none"
         id="path22" /><path
         d="m 484.855,848.113 49.43,36.762 -61.668,0 -18.769,56.301 -17.703,-56.301 -61.497,0 49.922,-36.844 -18.371,-58.437 48.574,36.144 49.797,-36.769 -19.715,59.144"
         style="fill:#ffffff;fill-opacity:1;fill-rule:nonzero;stroke:none"
         id="path24" /><path
         d="m 244.211,500.32 32.781,24.403 -40.898,0 -12.449,37.363 -11.75,-37.363 -40.84,0 33.144,-24.45 -12.179,-38.855 32.226,23.98 33.067,-24.414 -13.102,39.336"
         style="fill:#ffffff;fill-opacity:1;fill-rule:nonzero;stroke:none"
         id="path26" /><path
         d="m 129.016,825.254 32.769,24.414 -40.906,0 -12.449,37.355 -11.7386,-37.355 -40.832,0 33.1328,-24.465 -12.1758,-38.777 32.2386,23.984 33.047,-24.394 -13.086,39.238"
         style="fill:#ffffff;fill-opacity:1;fill-rule:nonzero;stroke:none"
         id="path28" /><path
         d="m 582.938,760.273 32.804,24.395 -40.918,0 -12.469,37.375 -11.742,-37.375 -40.8,0 33.117,-24.449 -12.188,-38.781 32.238,23.984 33.043,-24.399 -13.085,39.25"
         style="fill:#ffffff;fill-opacity:1;fill-rule:nonzero;stroke:none"
         id="path30" /><path
         d="m 506.133,582.359 65.555,48.77 -81.825,0 -24.914,74.715 -23.472,-74.715 -81.614,0 66.231,-48.887 -24.364,-77.554 64.461,47.953 66.082,-48.762 -26.14,78.48"
         style="fill:#ffffff;fill-opacity:1;fill-rule:nonzero;stroke:none"
         id="path32" /><path
         d="m 796.816,136.199 40.157,0 46.289,-87.8006 47.402,87.8006 37.449,0 0,-106.5427 -22.246,0 0,95.9177 -53.777,-95.9177 -21.543,0 -51.738,95.3317 0,-95.3317 -21.993,0 0,106.5427"
         style="fill:#231f20;fill-opacity:1;fill-rule:nonzero;stroke:none"
         id="path34" /><path
         d="m 1053.86,66.1133 c -8.64,0 -41.05,0 -41.05,-15.0664 0,-4.7071 4.53,-12.8321 23.59,-12.8321 10.88,0 19.04,2.8086 24.27,7.9688 4.75,5.0156 4.96,9.1484 5.44,19.4922 -3.86,0.2812 -7.04,0.4375 -12.25,0.4375 z m 14.75,-36.457 c -1.59,3.6953 -2.04,7.2304 -2.04,11.0664 -10.21,-12.2383 -25.66,-13.4258 -35.16,-13.4258 -26.13,0 -40.172,9.5898 -40.172,21.8437 0,5.9102 3.176,15.3399 19.962,21.6875 12.26,4.4375 30.39,4.875 39.48,4.875 5.43,0 8.85,-0.1445 15.43,-0.4375 0,9.1367 0,13.1133 -4.09,16.3672 -4.29,3.6797 -13.6,4.8594 -19.73,4.8594 -21.56,0 -22.69,-9.5899 -22.91,-12.5274 l -21.321,0 c 0.671,3.8477 1.355,8.9961 7.941,14.0157 8.6,6.1915 24.71,7.9765 36.73,7.9765 16.58,0 34.25,-3.398 40.4,-10.9297 3.63,-4.4296 3.86,-7.9648 3.86,-11.3671 l -0.94,-35.4063 c 0,-1.1758 0.24,-11.0742 1.85,-18.5976 l -19.29,0"
         style="fill:#231f20;fill-opacity:1;fill-rule:nonzero;stroke:none"
         id="path36" /><path
         d="m 1114.65,95.1875 -0.21,8.5505 21.31,0 0.26,-11.9528 c 2.48,3.0859 10.64,13.4178 36.5,13.4178 10.22,0 41.3,-2.5 41.3,-25.2303 l 0,-50.3164 -21.79,0 0,47.0742 c 0,4.8789 -0.91,9.2929 -6.12,12.6953 -5.46,3.3789 -12.93,5.0156 -20.2,5.0156 -15.43,0 -29.69,-7.2226 -29.69,-22.1445 l 0,-42.6406 -21.36,0 0,65.5312"
         style="fill:#231f20;fill-opacity:1;fill-rule:nonzero;stroke:none"
         id="path38" /><path
         d="m 1295.93,66.1133 c -8.63,0 -41.08,0 -41.08,-15.0664 0,-4.7071 4.56,-12.8321 23.62,-12.8321 10.89,0 19.05,2.8086 24.26,7.9688 4.76,5.0156 5,9.1484 5.45,19.4922 -3.84,0.2812 -7.01,0.4375 -12.25,0.4375 z m 14.74,-36.457 c -1.59,3.6953 -2.05,7.2304 -2.05,11.0664 -10.19,-12.2383 -25.63,-13.4258 -35.15,-13.4258 -26.11,0 -40.16,9.5898 -40.16,21.8437 0,5.9102 3.16,15.3399 19.95,21.6875 12.29,4.4375 30.42,4.875 39.48,4.875 5.45,0 8.86,-0.1445 15.44,-0.4375 0,9.1367 0,13.1133 -4.08,16.3672 -4.34,3.6797 -13.62,4.8594 -19.74,4.8594 -21.55,0 -22.7,-9.5899 -22.9,-12.5274 l -21.34,0 c 0.68,3.8477 1.36,8.9961 7.96,14.0157 8.61,6.1915 24.72,7.9765 36.72,7.9765 16.58,0 34.27,-3.398 40.4,-10.9297 3.62,-4.4296 3.84,-7.9648 3.84,-11.3671 l -0.89,-35.4063 c 0,-1.1758 0.24,-11.0742 1.81,-18.5976 l -19.29,0"
         style="fill:#231f20;fill-opacity:1;fill-rule:nonzero;stroke:none"
         id="path40" /><path
         d="m 1426.16,48.6914 c 4.52,3.8359 7.69,7.8242 7.69,21.2578 0,9.2891 -3.17,14.6133 -8.83,18.4297 -5.67,3.9922 -14.75,6.4922 -24.52,6.4922 -26.99,0 -30.62,-17.6914 -30.62,-27.1445 0,-11.3594 5.22,-26.418 31.33,-26.418 12.48,0 19.73,2.9609 24.95,7.3828 z m -49.7,-24.7734 c 0.92,-8.2813 6.36,-14.47659 26.54,-14.47659 29.74,0 30.17,14.00389 30.17,34.08199 -9.08,-12.2343 -30.61,-12.539 -37.42,-12.539 -10.44,0 -25.41,1.4883 -34.95,9.1523 -9.76,7.5313 -12.9,17.4141 -12.9,27.2969 0,25.0937 22.68,37.3324 50.56,37.3324 22.92,0 31.33,-7.3715 35.88,-11.2191 l 0.19,10.1911 20.67,0 -0.45,-13.4177 -0.25,-46.3437 c 0,-17.8633 -0.89,-25.0899 -5.43,-30.7032 C 1439.52,1.47656 1417.3,0 1401.62,0 c -45.58,0 -46.92,13.8672 -47.84,23.918 l 22.68,0"
         style="fill:#231f20;fill-opacity:1;fill-rule:nonzero;stroke:none"
         id="path42" /><path
         d="m 1483.54,103.738 21.32,0 0,-74.0817 -21.32,0 0,74.0817 z m -2.27,32.168 25.63,0 0,-15.191 -25.63,0 0,15.191"
         style="fill:#231f20;fill-opacity:1;fill-rule:nonzero;stroke:none"
         id="path44" /><path
         d="m 1535.72,95.1875 -0.2,8.5505 21.31,0 0.21,-11.9528 c 2.52,3.0859 10.67,13.4178 36.54,13.4178 10.21,0 41.3,-2.5 41.3,-25.2303 l 0,-50.3164 -21.79,0 0,47.0742 c 0,4.8789 -0.91,9.2929 -6.12,12.6953 -5.46,3.3789 -12.93,5.0156 -20.19,5.0156 -15.43,0 -29.74,-7.2226 -29.74,-22.1445 l 0,-42.6406 -21.32,0 0,65.5312"
         style="fill:#231f20;fill-opacity:1;fill-rule:nonzero;stroke:none"
         id="path46" /><path
         d="m 1732.41,48.6914 c 4.54,3.8359 7.74,7.8242 7.74,21.2578 0,9.2891 -3.2,14.6133 -8.87,18.4297 -5.67,3.9922 -14.74,6.4922 -24.49,6.4922 -27.01,0 -30.63,-17.6914 -30.63,-27.1445 0,-11.3594 5.21,-26.418 31.31,-26.418 12.48,0 19.73,2.9609 24.94,7.3828 z M 1682.74,23.918 c 0.89,-8.2813 6.33,-14.47659 26.53,-14.47659 29.73,0 30.15,14.00389 30.15,34.08199 -9.04,-12.2343 -30.58,-12.539 -37.4,-12.539 -10.45,0 -25.42,1.4883 -34.93,9.1523 -9.77,7.5313 -12.92,17.4141 -12.92,27.2969 0,25.0937 22.68,37.3324 50.6,37.3324 22.9,0 31.29,-7.3715 35.82,-11.2191 l 0.23,10.1911 20.64,0 -0.46,-13.4177 -0.2,-46.3437 c 0,-17.8633 -0.94,-25.0899 -5.46,-30.7032 C 1745.8,1.47656 1723.58,0 1707.93,0 c -45.62,0 -46.97,13.8672 -47.88,23.918 l 22.69,0"
         style="fill:#231f20;fill-opacity:1;fill-rule:nonzero;stroke:none"
         id="path48" /><path
         d="m 1961.33,109.641 c -2.49,9.882 -14.75,16.675 -36.99,16.675 -15.41,0 -28.35,-2.656 -36.98,-9 -14.28,-10.336 -17.47,-24.2027 -17.47,-34.2418 0,-9.0039 2.97,-24.1953 14.98,-33.4961 10.67,-7.9687 27.24,-10.4687 43.57,-10.4687 18.6,0 30.4,2.3672 35.62,3.3789 l 0,31.582 -37.43,0 0,12.2461 60.12,0 0,-52.5273 c -9.56,-2.0586 -30.4,-6.4922 -58.31,-6.4922 -30.18,0 -47.87,5.6133 -59.46,13.2773 -16.1,10.625 -22.92,25.5391 -22.92,40.586 0,10.625 4.1,35.7028 35.19,49.2808 16.09,7.086 37.42,7.539 45.59,7.539 12.95,0 32.68,-1.039 48.33,-11.371 9.75,-6.636 10.44,-12.847 10.88,-16.968 l -24.72,0"
         style="fill:#231f20;fill-opacity:1;fill-rule:nonzero;stroke:none"
         id="path50" /><path
         d="m 2088.6,73.9375 c 0.24,7.0703 -1.82,21.8359 -28.14,21.8359 -13.82,0 -30.62,-5.4531 -31.07,-21.8359 l 59.21,0 z m -60.11,-9.7461 c -0.46,-15.3437 9.28,-26.7031 32.65,-26.7031 13.85,0 24.98,4.7305 26.78,15.3555 l 21.32,0 c -0.67,-3.7032 -1.57,-9.7461 -9.75,-15.5079 -4.98,-3.6836 -16.34,-9.8867 -39.23,-9.8867 -35.88,0 -52.9,14.4531 -52.9,37.9336 0,14.5899 4.57,26.6953 22.48,34.8052 10.9,5.015 24.49,5.464 31.09,5.464 51.04,0 49.9,-29.3747 49.46,-41.4606 l -81.9,0"
         style="fill:#231f20;fill-opacity:1;fill-rule:nonzero;stroke:none"
         id="path52" /><path
         d="m 2131.02,95.1875 -0.22,8.5505 21.31,0 0.25,-11.9528 c 2.47,3.0859 10.65,13.4178 36.53,13.4178 10.21,0 41.27,-2.5 41.27,-25.2303 l 0,-50.3164 -21.76,0 0,47.0742 c 0,4.8789 -0.91,9.2929 -6.12,12.6953 -5.47,3.3789 -12.94,5.0156 -20.2,5.0156 -15.43,0 -29.72,-7.2226 -29.72,-22.1445 l 0,-42.6406 -21.34,0 0,65.5312"
         style="fill:#231f20;fill-opacity:1;fill-rule:nonzero;stroke:none"
         id="path54" /><path
         d="m 2330.66,73.9375 c 0.25,7.0703 -1.81,21.8359 -28.12,21.8359 -13.85,0 -30.63,-5.4531 -31.09,-21.8359 l 59.21,0 z m -60.09,-9.7461 c -0.46,-15.3437 9.27,-26.7031 32.64,-26.7031 13.87,0 24.97,4.7305 26.76,15.3555 l 21.35,0 c -0.68,-3.7032 -1.58,-9.7461 -9.77,-15.5079 -4.98,-3.6836 -16.32,-9.8867 -39.25,-9.8867 -35.81,0 -52.85,14.4531 -52.85,37.9336 0,14.5899 4.55,26.6953 22.46,34.8052 10.88,5.015 24.53,5.464 31.08,5.464 51.06,0 49.91,-29.3747 49.47,-41.4606 l -81.89,0"
         style="fill:#231f20;fill-opacity:1;fill-rule:nonzero;stroke:none"
         id="path56" /><path
         d="m 2373.54,88.6836 c 0,5.0156 -0.43,10.1719 -1.14,15.0544 l 21.57,0 0.45,-14.3122 c 4.09,10.332 17.7,13.7262 27.22,14.5972 6.37,0.594 11.13,0.45 14.76,0.301 l 0,-13.5701 c -1.13,0.293 -2.51,0.4297 -4.1,0.5859 -1.58,0.1524 -3.63,0.1524 -6.12,0.1524 -25.18,0 -31.07,-9.7461 -31.07,-22.4375 l 0,-39.3984 -21.57,0 0,59.0273"
         style="fill:#231f20;fill-opacity:1;fill-rule:nonzero;stroke:none"
         id="path58" /><path
         d="m 2504,66.1133 c -8.62,0 -41.07,0 -41.07,-15.0664 0,-4.7071 4.54,-12.8321 23.62,-12.8321 10.87,0 19.04,2.8086 24.25,7.9688 4.77,5.0156 5,9.1484 5.45,19.4922 -3.84,0.2812 -7.03,0.4375 -12.25,0.4375 z m 14.75,-36.457 c -1.61,3.6953 -2.04,7.2304 -2.04,11.0664 -10.22,-12.2383 -25.67,-13.4258 -35.17,-13.4258 -26.1,0 -40.16,9.5898 -40.16,21.8437 0,5.9102 3.17,15.3399 19.97,21.6875 12.22,4.4375 30.41,4.875 39.47,4.875 5.45,0 8.84,-0.1445 15.43,-0.4375 0,9.1367 0,13.1133 -4.08,16.3672 -4.3,3.6797 -13.6,4.8594 -19.74,4.8594 -21.56,0 -22.68,-9.5899 -22.91,-12.5274 l -21.32,0 c 0.66,3.8477 1.36,8.9961 7.93,14.0157 8.61,6.1915 24.74,7.9765 36.76,7.9765 16.56,0 34.25,-3.398 40.39,-10.9297 3.62,-4.4296 3.85,-7.9648 3.85,-11.3671 l -0.92,-35.4063 c 0,-1.1758 0.24,-11.0742 1.81,-18.5976 l -19.27,0"
         style="fill:#231f20;fill-opacity:1;fill-rule:nonzero;stroke:none"
         id="path60" /><path
         d="m 2564.56,29.6563 21.332,0 0,106.391 -21.332,0 0,-106.391 z"
         style="fill:#231f20;fill-opacity:1;fill-rule:nonzero;stroke:none"
         id="path62" /><path
         d="m 2711.58,69.3633 61.96,0 -30.19,52.2307 -31.77,-52.2307 z m 20.66,66.8357 24.27,0 66.26,-106.5427 -24.75,0 -17.67,27.746 -76.02,0 -17.69,-27.746 -23.38,0 68.98,106.5427"
         style="fill:#231f20;fill-opacity:1;fill-rule:nonzero;stroke:none"
         id="path64" /><path
         d="m 2908.28,48.6914 c 4.52,3.8359 7.7,7.8242 7.7,21.2578 0,9.2891 -3.18,14.6133 -8.83,18.4297 -5.69,3.9922 -14.76,6.4922 -24.5,6.4922 -27.01,0 -30.62,-17.6914 -30.62,-27.1445 0,-11.3594 5.21,-26.418 31.28,-26.418 12.5,0 19.74,2.9609 24.97,7.3828 z M 2858.6,23.918 c 0.89,-8.2813 6.33,-14.47659 26.55,-14.47659 29.7,0 30.15,14.00389 30.15,34.08199 -9.07,-12.2343 -30.61,-12.539 -37.42,-12.539 -10.44,0 -25.41,1.4883 -34.94,9.1523 -9.76,7.5313 -12.92,17.4141 -12.92,27.2969 0,25.0937 22.67,37.3324 50.58,37.3324 22.9,0 31.3,-7.3715 35.84,-11.2191 l 0.24,10.1911 20.65,0 -0.45,-13.4177 -0.24,-46.3437 c 0,-17.8633 -0.92,-25.0899 -5.45,-30.7032 C 2921.66,1.47656 2899.41,0 2883.76,0 c -45.6,0 -46.94,13.8672 -47.86,23.918 l 22.7,0"
         style="fill:#231f20;fill-opacity:1;fill-rule:nonzero;stroke:none"
         id="path66" /><path
         d="m 3043.05,73.9375 c 0.22,7.0703 -1.83,21.8359 -28.16,21.8359 -13.84,0 -30.63,-5.4531 -31.07,-21.8359 l 59.23,0 z m -60.12,-9.7461 c -0.46,-15.3437 9.31,-26.7031 32.66,-26.7031 13.83,0 24.95,4.7305 26.76,15.3555 l 21.35,0 c -0.71,-3.7032 -1.59,-9.7461 -9.76,-15.5079 -5.01,-3.6836 -16.34,-9.8867 -39.26,-9.8867 -35.84,0 -52.87,14.4531 -52.87,37.9336 0,14.5899 4.54,26.6953 22.45,34.8052 10.92,5.015 24.51,5.464 31.1,5.464 51.07,0 49.92,-29.3747 49.44,-41.4606 l -81.87,0"
         style="fill:#231f20;fill-opacity:1;fill-rule:nonzero;stroke:none"
         id="path68" /><path
         d="m 3090,95.1875 -0.22,8.5505 21.31,0 0.24,-11.9528 c 2.5,3.0859 10.66,13.4178 36.52,13.4178 10.24,0 41.3,-2.5 41.3,-25.2303 l 0,-50.3164 -21.78,0 0,47.0742 c 0,4.8789 -0.92,9.2929 -6.12,12.6953 -5.47,3.3789 -12.94,5.0156 -20.2,5.0156 -15.42,0 -29.72,-7.2226 -29.72,-22.1445 l 0,-42.6406 -21.33,0 0,65.5312"
         style="fill:#231f20;fill-opacity:1;fill-rule:nonzero;stroke:none"
         id="path70" /><path
         d="m 3203.66,104.023 20.2,0 0,15.5 21.08,4.43 0,-19.93 25.39,0 0,-10.1753 -25.39,0 0,-44.4141 c 0,-3.7031 0,-9.8828 15.21,-9.8828 4.31,0 8.39,0.4375 10.18,0.7305 l 0,-10.7774 c -3.82,-0.4414 -9.96,-0.8828 -17.67,-0.8828 -19.51,0 -28.8,3.6953 -28.8,15.793 l 0,49.4336 -20.2,0 0,10.1753"
         style="fill:#231f20;fill-opacity:1;fill-rule:nonzero;stroke:none"
         id="path72" /><path
         d="m 3302.13,51.6406 c -0.25,-5.5937 4.31,-13.4258 24.95,-13.4258 8.85,0 15.44,1.0313 19.94,4.7266 2.3,1.9219 3.64,4.4141 3.64,6.9297 0,7.2305 -7.94,8.5586 -24.95,11.0742 -23.83,3.5352 -43.8,6.6445 -43.8,22.1289 0,13.5742 18.18,22.4458 44.47,22.4458 14.3,0 34.28,-2.668 41.07,-11.5278 2.94,-4.1289 2.94,-7.6758 2.94,-10.7695 l -21.77,0 c 0.7,11.2187 -14.27,12.0898 -22,12.0898 -3.17,0 -23.15,0 -23.15,-10.6172 0,-6.7734 10.22,-8.418 16.11,-9.4297 31.52,-4.875 38.33,-6.0547 45.17,-10.1875 6.34,-3.8398 8.61,-9.0117 8.61,-13.7226 0,-8.2578 -7.03,-15.3477 -15.45,-18.75 -9.96,-3.9844 -21.98,-5.0157 -33.79,-5.0157 -23.13,0 -44.68,6.1993 -44.47,24.0508 l 22.48,0"
         style="fill:#231f20;fill-opacity:1;fill-rule:nonzero;stroke:none"
         id="path74" /><path
         d="m 826.758,245.691 61.933,0 -30.168,52.239 -31.765,-52.239 z m 20.664,66.836 24.258,0 66.25,-106.543 -24.727,0 -17.695,27.746 -75.996,0 -17.696,-27.746 -23.378,0 68.984,106.543"
         style="fill:#231f20;fill-opacity:1;fill-rule:nonzero;stroke:none"
         id="path76" /><path
         d="m 946.316,270.188 -0.457,9.878 21.551,0 0,-10.769 c 10.891,11.648 26.313,12.683 36.09,12.683 25.15,0 33.13,-8.406 37.21,-13.867 3.85,4.121 13.15,13.867 38.33,13.867 16.33,0 41.74,-4.421 41.74,-26.265 l 0,-49.731 -21.54,0 0,47.524 c 0,6.48 -1.84,9.297 -3.87,11.211 -3.63,3.394 -10.88,6.492 -21.79,6.492 -13.82,0 -21.3,-5.164 -24.27,-7.813 -4.96,-4.582 -4.96,-12.707 -4.96,-15.937 l 0,-41.477 -21.58,0 0,48.996 c 0,9.153 -8.17,16.231 -24.938,16.231 -14.531,0 -22.473,-5.891 -24.949,-8.113 -4.785,-4.282 -5.024,-10.332 -5.024,-15.063 l 0,-42.051 -21.543,0 0,64.204"
         style="fill:#231f20;fill-opacity:1;fill-rule:nonzero;stroke:none"
         id="path78" /><path
         d="m 1220.15,250.266 c 0.23,7.089 -1.83,21.836 -28.13,21.836 -13.84,0 -30.63,-5.461 -31.09,-21.836 l 59.22,0 z m -60.12,-9.746 c -0.45,-15.352 9.3,-26.704 32.67,-26.704 13.82,0 24.97,4.719 26.76,15.344 l 21.33,0 c -0.67,-3.699 -1.58,-9.746 -9.75,-15.5 -5,-3.68 -16.33,-9.883 -39.25,-9.883 -35.84,0 -52.85,14.453 -52.85,37.922 0,14.61 4.54,26.707 22.45,34.817 10.89,5.015 24.48,5.464 31.08,5.464 51.04,0 49.91,-29.375 49.45,-41.46 l -81.89,0"
         style="fill:#231f20;fill-opacity:1;fill-rule:nonzero;stroke:none"
         id="path80" /><path
         d="m 1260.76,265.012 c 0,5.039 -0.46,10.191 -1.14,15.054 l 21.55,0 0.46,-14.312 c 4.07,10.32 17.7,13.726 27.21,14.605 6.37,0.586 11.12,0.442 14.77,0.305 l 0,-13.586 c -1.14,0.293 -2.51,0.449 -4.08,0.59 -1.6,0.152 -3.65,0.152 -6.13,0.152 -25.21,0 -31.1,-9.746 -31.1,-22.437 l 0,-39.399 -21.54,0 0,59.028"
         style="fill:#231f20;fill-opacity:1;fill-rule:nonzero;stroke:none"
         id="path82" /><path
         d="m 1334.5,280.066 21.3,0 0,-74.082 -21.3,0 0,74.082 z m -2.29,32.168 25.66,0 0,-15.191 -25.66,0 0,15.191"
         style="fill:#231f20;fill-opacity:1;fill-rule:nonzero;stroke:none"
         id="path84" /><path
         d="m 1448.61,256.309 c -0.47,3.398 -2.05,15.5 -22.68,15.5 -29.5,0 -29.5,-22.286 -29.5,-27.891 0,-15.207 5.68,-29.375 28.36,-29.375 18.14,0 24.28,8.855 24.71,16.082 l 21.56,0 c -1.33,-14.441 -17.92,-26.555 -46.05,-26.555 -7.72,0 -25.4,1.035 -37.43,9.59 -6.8,5.156 -13.61,12.988 -13.61,28.344 0,30.816 29.03,39.976 51.72,39.976 7.48,0 24.52,-1.035 34.94,-9.16 8.37,-6.328 9.1,-12.379 9.51,-16.511 l -21.53,0"
         style="fill:#231f20;fill-opacity:1;fill-rule:nonzero;stroke:none"
         id="path86" /><path
         d="m 1538.22,242.434 c -8.62,0 -41.07,0 -41.07,-15.063 0,-4.703 4.54,-12.828 23.58,-12.828 10.89,0 19.06,2.812 24.3,7.969 4.75,5.015 5,9.16 5.44,19.492 -3.87,0.281 -7.03,0.43 -12.25,0.43 z m 14.74,-36.45 c -1.59,3.696 -2.03,7.231 -2.03,11.079 -10.21,-12.258 -25.64,-13.442 -35.17,-13.442 -26.1,0 -40.16,9.594 -40.16,21.84 0,5.906 3.18,15.359 19.97,21.695 12.25,4.438 30.39,4.875 39.48,4.875 5.42,0 8.84,-0.144 15.42,-0.437 0,9.136 0,13.125 -4.06,16.367 -4.33,3.687 -13.64,4.859 -19.77,4.859 -21.54,0 -22.69,-9.578 -22.9,-12.527 l -21.34,0 c 0.7,3.84 1.37,9.004 7.94,14.016 8.63,6.199 24.74,7.964 36.77,7.964 16.56,0 34.24,-3.375 40.39,-10.918 3.6,-4.421 3.85,-7.957 3.85,-11.367 l -0.92,-35.41 c 0,-1.18 0.23,-11.07 1.81,-18.594 l -19.28,0"
         style="fill:#231f20;fill-opacity:1;fill-rule:nonzero;stroke:none"
         id="path88" /><path
         d="m 1596.76,271.516 -0.25,8.55 21.35,0 0.21,-11.953 c 2.5,3.098 10.67,13.418 36.52,13.418 10.21,0 41.3,-2.5 41.3,-25.222 l 0,-50.325 -21.8,0 0,47.082 c 0,4.864 -0.88,9.289 -6.11,12.688 -5.43,3.387 -12.93,5.019 -20.19,5.019 -15.42,0 -29.72,-7.226 -29.72,-22.128 l 0,-42.661 -21.31,0 0,65.532"
         style="fill:#231f20;fill-opacity:1;fill-rule:nonzero;stroke:none"
         id="path90" /><path
         d="m 1828.13,245.691 61.97,0 -30.18,52.239 -31.79,-52.239 z m 20.67,66.836 24.28,0 66.24,-106.543 -24.74,0 -17.7,27.746 -75.99,0 -17.67,-27.746 -23.39,0 68.97,106.543"
         style="fill:#231f20;fill-opacity:1;fill-rule:nonzero;stroke:none"
         id="path92" /><path
         d="m 1973.79,227.969 c -0.23,-5.598 4.33,-13.426 24.98,-13.426 8.84,0 15.41,1.031 19.93,4.727 2.3,1.914 3.63,4.421 3.63,6.929 0,7.239 -7.91,8.559 -24.94,11.074 -23.83,3.547 -43.79,6.645 -43.79,22.129 0,13.578 18.16,22.422 44.47,22.422 14.3,0 34.26,-2.644 41.09,-11.48 2.91,-4.16 2.91,-7.676 2.91,-10.781 l -21.77,0 c 0.7,11.21 -14.27,12.085 -21.99,12.085 -3.21,0 -23.14,0 -23.14,-10.613 0,-6.789 10.2,-8.43 16.09,-9.441 31.53,-4.875 38.35,-6.059 45.15,-10.176 6.36,-3.852 8.63,-9.016 8.63,-13.742 0,-8.262 -7.02,-15.34 -15.43,-18.738 -9.98,-3.989 -22,-5.012 -33.8,-5.012 -23.14,0 -44.69,6.191 -44.47,24.043 l 22.45,0"
         style="fill:#231f20;fill-opacity:1;fill-rule:nonzero;stroke:none"
         id="path94" /><path
         d="m 2087.22,227.969 c -0.21,-5.598 4.33,-13.426 24.99,-13.426 8.84,0 15.42,1.031 19.93,4.727 2.27,1.914 3.65,4.421 3.65,6.929 0,7.239 -7.94,8.559 -24.96,11.074 -23.82,3.547 -43.77,6.645 -43.77,22.129 0,13.578 18.15,22.422 44.46,22.422 14.28,0 34.23,-2.644 41.05,-11.48 2.94,-4.16 2.94,-7.676 2.94,-10.781 l -21.76,0 c 0.66,11.21 -14.3,12.085 -22,12.085 -3.18,0 -23.15,0 -23.15,-10.613 0,-6.789 10.21,-8.43 16.09,-9.441 31.56,-4.875 38.35,-6.059 45.15,-10.176 6.37,-3.852 8.64,-9.016 8.64,-13.742 0,-8.262 -7.04,-15.34 -15.44,-18.738 -9.98,-3.989 -21.99,-5.012 -33.8,-5.012 -23.12,0 -44.69,6.191 -44.46,24.043 l 22.44,0"
         style="fill:#231f20;fill-opacity:1;fill-rule:nonzero;stroke:none"
         id="path96" /><path
         d="m 2231.97,213.816 c 16.13,0 34.48,7.524 34.48,29.797 0,18.45 -13.17,28.196 -33.1,28.196 -13.62,0 -35.63,-5.625 -35.63,-28.774 0,-15.215 9.99,-29.219 34.25,-29.219 z m 1.38,68.164 c 45.62,0 55.8,-23.32 55.8,-38.804 0,-21.699 -18.82,-39.699 -57.63,-39.699 -37.64,0 -56.03,16.972 -56.03,38.664 0,18.3 13.15,39.839 57.86,39.839"
         style="fill:#231f20;fill-opacity:1;fill-rule:nonzero;stroke:none"
         id="path98" /><path
         d="m 2378.3,256.309 c -0.45,3.398 -2.05,15.5 -22.67,15.5 -29.49,0 -29.49,-22.286 -29.49,-27.891 0,-15.207 5.68,-29.375 28.34,-29.375 18.14,0 24.29,8.855 24.74,16.082 l 21.56,0 c -1.37,-14.441 -17.93,-26.555 -46.06,-26.555 -7.72,0 -25.39,1.035 -37.43,9.59 -6.82,5.156 -13.63,12.988 -13.63,28.344 0,30.816 29.04,39.976 51.74,39.976 7.45,0 24.48,-1.035 34.94,-9.16 8.39,-6.328 9.07,-12.379 9.51,-16.511 l -21.55,0"
         style="fill:#231f20;fill-opacity:1;fill-rule:nonzero;stroke:none"
         id="path100" /><path
         d="m 2427.07,280.066 21.36,0 0,-74.082 -21.36,0 0,74.082 z m -2.26,32.168 25.65,0 0,-15.191 -25.65,0 0,15.191"
         style="fill:#231f20;fill-opacity:1;fill-rule:nonzero;stroke:none"
         id="path102" /><path
         d="m 2530.99,242.434 c -8.61,0 -41.05,0 -41.05,-15.063 0,-4.703 4.53,-12.828 23.57,-12.828 10.9,0 19.05,2.812 24.27,7.969 4.79,5.015 5.01,9.16 5.46,19.492 -3.86,0.281 -7.03,0.43 -12.25,0.43 z m 14.73,-36.45 c -1.55,3.696 -2.03,7.231 -2.03,11.079 -10.21,-12.258 -25.63,-13.442 -35.15,-13.442 -26.1,0 -40.17,9.594 -40.17,21.84 0,5.906 3.17,15.359 19.98,21.695 12.25,4.438 30.4,4.875 39.47,4.875 5.46,0 8.84,-0.144 15.42,-0.437 0,9.136 0,13.125 -4.08,16.367 -4.32,3.687 -13.62,4.859 -19.74,4.859 -21.57,0 -22.69,-9.578 -22.91,-12.527 l -21.33,0 c 0.7,3.84 1.36,9.004 7.95,14.016 8.6,6.199 24.74,7.964 36.75,7.964 16.53,0 34.26,-3.375 40.39,-10.918 3.64,-4.421 3.83,-7.957 3.83,-11.367 l -0.9,-35.41 c 0,-1.18 0.25,-11.07 1.82,-18.594 l -19.3,0"
         style="fill:#231f20;fill-opacity:1;fill-rule:nonzero;stroke:none"
         id="path104" /><path
         d="m 2584.99,280.359 20.19,0 0,15.5 21.1,4.422 0,-19.922 25.4,0 0,-10.171 -25.4,0 0,-44.426 c 0,-3.684 0,-9.895 15.19,-9.895 4.33,0 8.41,0.449 10.21,0.742 l 0,-10.769 c -3.85,-0.449 -9.97,-0.891 -17.69,-0.891 -19.52,0 -28.81,3.696 -28.81,15.805 l 0,49.434 -20.19,0 0,10.171"
         style="fill:#231f20;fill-opacity:1;fill-rule:nonzero;stroke:none"
         id="path106" /><path
         d="m 2669.16,280.066 21.34,0 0,-74.082 -21.34,0 0,74.082 z m -2.28,32.168 25.64,0 0,-15.191 -25.64,0 0,15.191"
         style="fill:#231f20;fill-opacity:1;fill-rule:nonzero;stroke:none"
         id="path108" /><path
         d="m 2766.49,213.816 c 16.11,0 34.47,7.524 34.47,29.797 0,18.45 -13.17,28.196 -33.13,28.196 -13.59,0 -35.59,-5.625 -35.59,-28.774 0,-15.215 9.98,-29.219 34.25,-29.219 z m 1.34,68.164 c 45.62,0 55.81,-23.32 55.81,-38.804 0,-21.699 -18.82,-39.699 -57.6,-39.699 -37.67,0 -56.06,16.972 -56.06,38.664 0,18.3 13.16,39.839 57.85,39.839"
         style="fill:#231f20;fill-opacity:1;fill-rule:nonzero;stroke:none"
         id="path110" /><path
         d="m 2848.6,271.516 -0.21,8.55 21.32,0 0.22,-11.953 c 2.5,3.098 10.67,13.418 36.54,13.418 10.21,0 41.27,-2.5 41.27,-25.222 l 0,-50.325 -21.79,0 0,47.082 c 0,4.864 -0.88,9.289 -6.1,12.688 -5.46,3.387 -12.94,5.019 -20.18,5.019 -15.44,0 -29.74,-7.226 -29.74,-22.128 l 0,-42.661 -21.33,0 0,65.532"
         style="fill:#231f20;fill-opacity:1;fill-rule:nonzero;stroke:none"
         id="path112" /><path
         d="m 3088.62,213.816 c 16.12,0 34.5,7.524 34.5,29.797 0,18.45 -13.15,28.196 -33.12,28.196 -13.62,0 -35.62,-5.625 -35.62,-28.774 0,-15.215 9.99,-29.219 34.24,-29.219 z m 1.38,68.164 c 45.6,0 55.79,-23.32 55.79,-38.804 0,-21.699 -18.83,-39.699 -57.6,-39.699 -37.67,0 -56.02,16.972 -56.02,38.664 0,18.3 13.14,39.839 57.83,39.839"
         style="fill:#231f20;fill-opacity:1;fill-rule:nonzero;stroke:none"
         id="path114" /><path
         d="m 3227.03,302.195 c -3.61,0.141 -8.17,0.305 -12.5,0.305 -17.24,0 -17.24,-5.613 -17.24,-10.77 l 0,-11.664 26.56,0 0,-10.015 -26.56,0 0,-64.067 -21.11,0 0,64.067 -22.44,0 0,10.015 22.44,0 0,8.411 c 0,10.183 0.92,13.859 4.81,17.707 4.74,4.714 13.8,8.125 28.56,8.125 6.13,0 12.93,-0.586 17.48,-1.036 l 0,-11.078"
         style="fill:#231f20;fill-opacity:1;fill-rule:nonzero;stroke:none"
         id="path116" /><path
         d="m 3041.61,621.41 63.66,179.524 73.69,-179.524 -137.35,0 z m 367.57,-186.183 0,0.039 c -44.39,0 -61.21,34.812 -61.21,34.812 l -198.95,444.121 c 0,0 -4.19,13.781 -13.02,13.781 -8.82,0 -12.75,-13.781 -12.75,-13.781 0,0 -147.84,-360.976 -174.23,-420.879 -26.38,-59.882 -73.98,-58.015 -73.98,-58.015 l 0,-0.078 -7.18,0 0,-21.606 175.04,0 0,21.606 -21.02,0 0,0.078 c -47.58,0 -30.15,45.386 -30.15,45.386 l 38.44,108.411 162.08,0 47.88,-116.641 c 0,0 14.11,-37.18 -28.22,-37.18 l 0,-0.054 -20.15,0 0,-21.606 234.45,0 0,21.606 -17.03,0"
         style="fill:#231f20;fill-opacity:1;fill-rule:nonzero;stroke:none"
         id="path118" /><path
         d="m 1392.47,621.41 63.65,179.524 73.71,-179.524 -137.36,0 z m -449.794,0 63.684,179.524 73.72,-179.524 -137.404,0 z m 1423.384,-186.183 0,0.007 c 0,0 -51.64,-0.5 -51.64,67.887 0,68.297 -5.32,344.512 -5.32,344.512 0,0 -1.72,58.543 37.32,59.258 l 14.81,0 0,21.586 -144.29,0 c -5.25,0 -10.48,-13.95 -10.48,-13.95 L 2040.91,539.191 c -4.15,0 -163.16,375.336 -163.16,375.336 0,0 -4.24,13.95 -10.5,13.95 l -144.3,0 0,-21.586 7.68,0 -0.06,-0.051 c 0,0 49.39,3.699 47.64,-57.875 -1.72,-61.563 -10.37,-370.32 -10.37,-370.32 0,0 0.02,-27.329 -34.58,-38.497 -24.53,9.571 -34.44,29.93 -34.44,29.93 l -198.93,444.121 c 0,0 -4.19,13.781 -13.02,13.781 -8.82,0 -12.78,-13.781 -12.78,-13.781 0,0 -147.82,-360.976 -174.21,-420.879 -9.47,-21.496 -21.66,-34.992 -33.42,-43.504 -12.21,9.539 -17.41,20.262 -17.41,20.262 l -198.93,444.121 c 0,0 -4.2,13.781 -13.02,13.781 -8.82,0 -12.76,-13.781 -12.76,-13.781 0,0 -147.848,-360.976 -174.235,-420.879 -26.394,-59.882 -73.972,-58.015 -73.972,-58.015 l 0,-0.078 -7.207,0 0,-21.606 175.027,0 0,21.606 -20.973,0 0,0.078 c -47.589,0 -30.16,45.386 -30.16,45.386 l 38.418,108.411 162.092,0 47.86,-116.641 c 0,0 14.16,-37.18 -28.2,-37.18 l 0,-0.054 -20.15,0 0,-21.606 300.9,0 0,21.606 -21.01,0 0,0.078 c -47.57,0 -30.13,45.386 -30.13,45.386 l 38.4,108.411 162.13,0 47.83,-116.641 c 0,0 14.14,-37.18 -28.19,-37.18 l 0,-0.054 -20.16,0 0,-21.606 325.28,0 0,21.606 -4.89,0 0,0.214 c 0,0 -51.97,-2.519 -52.94,52.61 -0.94,55.211 -0.11,339.855 -0.11,339.855 l 182.76,-407.574 c 0,0 4.82,-13.777 17.4,-13.777 12.58,0 17.39,13.179 17.39,13.179 l 187.57,435.735 8.97,-361.375 c 0,0 2.83,-58.86 -55.22,-58.86 l 0,-0.007 -5.27,0 0,-21.606 209.91,0 0,21.606 -7.4,0"
         style="fill:#231f20;fill-opacity:1;fill-rule:nonzero;stroke:none"
         id="path120" /><path
         d="m 2721.59,641.832 0,-21.602 c 54.55,0 54.2,-41.097 54.2,-41.097 l 0,-110.688 c -16.66,-15.664 -54.81,-36.211 -95.94,-36.211 -41.1,0 -152.7,27.414 -195.74,156.692 -43.06,129.199 -13.71,319.066 173.25,319.066 186.93,0 179.58,-129.086 179.58,-129.086 l 21.61,0 0,115.317 -0.06,12.765 c 0,0 -112.51,34.164 -202.37,34.164 -89.89,0 -317.76,-56.797 -300.85,-280.437 16.4,-216.652 187.58,-260.766 287.05,-260.766 99.48,0 207.79,42.524 216.56,46.035 8.78,3.52 8.78,18.286 8.78,18.286 l 0,115.671 c 0,0 2.98,40.289 51.47,40.289 l 0,21.602 -197.54,0"
         style="fill:#231f20;fill-opacity:1;fill-rule:nonzero;stroke:none"
         id="path122" /><path
         d="m 3390.42,897.688 c 1.34,0 2.61,0.046 3.8,0.136 1.19,0.086 2.25,0.332 3.19,0.742 0.93,0.399 1.67,1.036 2.23,1.875 0.56,0.848 0.83,2.02 0.83,3.543 0,1.282 -0.25,2.297 -0.74,3.059 -0.5,0.75 -1.14,1.336 -1.93,1.746 -0.78,0.41 -1.69,0.684 -2.7,0.832 -1.03,0.145 -2.03,0.215 -3.02,0.215 l -7.87,0 0,-12.148 6.21,0 z m 2.62,16.96 c 4.55,0 7.92,-0.906 10.09,-2.714 2.19,-1.805 3.29,-4.539 3.29,-8.211 0,-3.438 -0.97,-5.957 -2.88,-7.559 -1.93,-1.613 -4.32,-2.559 -7.17,-2.844 l 10.92,-16.875 -6.38,0 -10.4,16.438 -6.3,0 0,-16.438 -5.94,0 0,38.203 14.77,0 z m -26.97,-30.117 c 1.37,-3.406 3.27,-6.367 5.69,-8.875 2.41,-2.5 5.27,-4.472 8.56,-5.898 3.29,-1.426 6.87,-2.141 10.72,-2.141 3.77,0 7.3,0.715 10.57,2.141 3.26,1.426 6.1,3.398 8.52,5.898 2.42,2.508 4.31,5.469 5.68,8.875 1.37,3.41 2.06,7.129 2.06,11.145 0,3.906 -0.69,7.547 -2.06,10.926 -1.37,3.378 -3.26,6.308 -5.68,8.789 -2.42,2.472 -5.26,4.425 -8.52,5.859 -3.27,1.426 -6.8,2.141 -10.57,2.141 -3.85,0 -7.43,-0.715 -10.72,-2.141 -3.29,-1.434 -6.15,-3.387 -8.56,-5.859 -2.42,-2.481 -4.32,-5.411 -5.69,-8.789 -1.36,-3.379 -2.05,-7.02 -2.05,-10.926 0,-4.016 0.69,-7.735 2.05,-11.145 z m -5.38,23.996 c 1.75,3.965 4.12,7.403 7.13,10.313 3,2.918 6.5,5.203 10.49,6.863 3.99,1.66 8.23,2.492 12.73,2.492 4.48,0 8.71,-0.832 12.66,-2.492 3.97,-1.66 7.43,-3.945 10.41,-6.863 2.97,-2.91 5.33,-6.348 7.08,-10.313 1.75,-3.964 2.62,-8.242 2.62,-12.851 0,-4.719 -0.87,-9.074 -2.62,-13.067 -1.75,-3.996 -4.11,-7.461 -7.08,-10.402 -2.98,-2.949 -6.44,-5.234 -10.41,-6.863 -3.95,-1.633 -8.18,-2.446 -12.66,-2.446 -4.5,0 -8.74,0.813 -12.73,2.446 -3.99,1.629 -7.49,3.914 -10.49,6.863 -3.01,2.941 -5.38,6.406 -7.13,10.402 -1.74,3.993 -2.61,8.348 -2.61,13.067 0,4.609 0.87,8.887 2.61,12.851"
         style="fill:#231f20;fill-opacity:1;fill-rule:nonzero;stroke:none"
         id="path124" /></g></g></svg>